<svg viewBox="232 74 223 70" fill="none" xmlns="http://www.w3.org/2000/svg"><path fill="#e07020" d="M271.5 118.3L271.5 119.4L269.7 119.4L269.7 120.2L272.4 120.2L272.4 120.9L274.9 120.9L274.9 122.1L273.2 122.1L273.2 123.2L278.3 123.2L278.3 124.3L270 124.3L270 125.9L270.6 125.9L270.6 126.0Q270.6 126.2 270.5 126.2L270.5 126.2Q270.4 127.0 270 127.4L270 127.4L269.4 127.4Q269.1 127.7 268.9 127.8L268.9 127.8L271.5 127.8Q271.1 128.1 270.5 128.1L270.5 128.1L261.9 128.1Q260.6 128.1 259.3 128.0Q258.1 127.9 256.9 127.8L256.9 127.8L254.3 127.8Q253.8 127.7 253.3 127.6Q252.7 127.5 252.1 127.4L252.1 127.4L252.7 127.4Q251.8 127.1 250.9 126.8Q250.0 126.5 249.2 126.2L249.2 126.2L249.3 126.2Q249.0 126.1 248.8 126.0Q248.6 125.9 248.4 125.9L248.4 125.9L247.8 125.9Q247.2 125.5 246.6 125.1Q246.0 124.8 245.4 124.3L245.4 124.3L253.7 124.3Q253.4 124.0 253.1 123.8Q252.7 123.5 252.4 123.2L252.4 123.2L247.4 123.2L246.4 122.1L248.2 122.1Q248.0 121.8 247.8 121.5Q247.6 121.2 247.4 120.9L247.4 120.9L244.9 120.9L244.5 120.2L241.7 120.2Q241.7 120.0 241.6 119.8Q241.5 119.5 241.3 119.4L241.3 119.4L243.2 119.4L242.8 118.3L244.3 118.3L244.1 117.5Q243.9 117.0 243.9 116.7L243.9 116.7L249.9 116.7Q249.9 116.4 249.8 116.2Q249.8 115.9 249.8 115.6L249.8 115.6L241.1 115.6Q241.1 115.4 241.1 115.4Q241.0 115.3 241.0 115.2L241.0 115.2L240.8 115.2Q240.8 114.9 240.8 114.6Q240.7 114.4 240.7 114.1L240.7 114.1L240.5 114.1Q240.5 113.8 240.5 113.5Q240.4 113.2 240.4 112.9L240.4 112.9L241.5 112.9L241.5 112.6L240.8 112.6L240.8 111.8L240.2 111.8L240.2 110.3L241.1 110.3L241.1 108.8L240.2 108.8L240.2 107.6L240.9 107.6L240.9 106.9L241.0 106.9L241.0 105.7L241.3 105.7L241.3 103.1L241.5 103.1L241.5 101.9L241.9 101.9L241.9 101.8L235.9 101.8Q234.7 101.8 234.1 100.8L234.1 100.8L235.2 100.8Q235.0 100.3 235.0 99.8L235.0 99.8L235.0 99.3L232.5 99.3L232.5 98.1L233.1 98.1L233.1 96.6L232.7 96.6L232.7 95.8L232.8 95.8L232.8 95.1L234.0 95.1L234.0 94.7L232.1 94.7L232.1 93.6L234.4 93.6L234.4 92.4L233.9 92.4L233.9 91.7L233.4 91.7L233.4 90.5L232.9 90.5L232.9 90.1L232.7 90.1Q232.9 89.0 234.1 88.6L234.1 88.6L234.6 88.6Q234.8 88.5 235.2 88.5L235.2 88.5L241.2 88.5L241.2 88.2L241.5 88.2L241.5 87.1L240.9 87.1L240.9 86.3L240.8 86.3L240.8 85.2L240.5 85.2L240.5 84.8L238.7 84.8L238.7 84.1L236.9 84.1L236.9 83.7L237.5 83.7L237.5 83.3L239.3 83.3L239.3 81.8L240.0 81.8L240.0 81.0L237.5 81.0L237.5 80.3L241.3 80.3L241.3 79.1L240.9 79.1L240.9 78.7L240.1 78.7L240.1 78.0L240.8 78.0L240.8 77.6L240.1 77.6L240.1 76.5L240.7 76.5L240.7 76.2Q240.7 75.8 240.9 75.3L240.9 75.3L241.9 75.3Q242.4 74.1 243.8 74.1L243.8 74.1L257.1 74.1Q258.3 74.1 259.0 75.3L259.0 75.3L258.0 75.3Q258.1 75.8 258.1 76.2L258.1 76.2L258.1 76.5L257.5 76.5L257.5 77.6L258.2 77.6L258.2 78.0L257.5 78.0L257.5 78.7L258.3 78.7L258.3 79.1L258.7 79.1L258.7 80.3L255.0 80.3L255.0 81.0L257.4 81.0L257.4 81.8L256.7 81.8L256.7 83.3L255.0 83.3L255.0 83.7L254.3 83.7L254.3 84.1L256.1 84.1L256.1 84.8L257.9 84.8L257.9 85.2L258.2 85.2L258.2 86.3L258.3 86.3L258.3 87.1L258.9 87.1L258.9 88.2L258.6 88.2L258.6 88.5L268.2 88.5Q268.6 88.5 268.7 88.6L268.7 88.6L268.3 88.6Q269.3 89.0 269.7 90.1L269.7 90.1L269.9 90.1Q269.9 90.2 270.0 90.3Q270 90.4 270 90.5L270 90.5L270.5 90.5L270.5 91.7L271.0 91.7L271.0 92.4L271.4 92.4L271.4 93.6L269.2 93.6L269.2 94.7L271.1 94.7L271.1 95.1L269.9 95.1L269.9 95.8L269.8 95.8L269.8 96.6L270.2 96.6L270.2 98.1L269.6 98.1L269.6 99.3L272.1 99.3L272.1 99.8Q272.1 100.1 272.0 100.3Q271.9 100.5 271.7 100.8L271.7 100.8L270.7 100.8Q270 101.8 268.9 101.8L268.9 101.8L259.3 101.8L259.3 101.9L258.9 101.9L258.9 103.1L258.8 103.1L258.8 105.7L258.4 105.7L258.4 106.9L258.3 106.9L258.3 107.6L257.6 107.6L257.6 108.8L258.5 108.8L258.5 110.3L257.6 110.3Q257.6 110.7 257.6 111.0Q257.7 111.4 257.8 111.8L257.8 111.8L258.4 111.8Q258.6 112.3 258.8 112.6L258.8 112.6L259.4 112.6L259.6 112.9L258.5 112.9Q259.4 114 261.1 114L261.1 114L268.0 114Q268.4 114 268.6 114.1L268.6 114.1L268.8 114.1Q269.7 114.3 270.1 115.2L270.1 115.2L270.3 115.2Q270.3 115.3 270.3 115.4Q270.4 115.4 270.4 115.6L270.4 115.6L279.0 115.6Q279.0 115.7 279.1 115.8Q279.1 115.9 279.1 116.1L279.1 116.1L279.1 116.7L273.0 116.7L273.0 118.3L271.5 118.3ZM320.7 90.9L320.4 91.7L314.2 91.7L314.1 92.0L320.5 92.0L319.8 93.6L316.8 93.6L316.2 95.1L317.8 95.1L317.2 96.6L314.7 96.6L314.4 97.4L316.3 97.4L316.0 98.1L315.5 98.1L315.4 98.5L315.3 98.5L314.8 99.6L315.5 99.6L315.1 100.8L309.7 100.8L309.3 101.5L313.5 101.5L313.3 101.9L306.5 101.9L306.2 102.7L305.6 102.7L304.9 104.2L314.9 104.2L314.8 104.6L313.0 104.6L312.6 105.3L313.2 105.3L313.0 105.7L312.6 105.7L311.9 107.2L311.4 108.4L310.5 108.4L310.0 109.5L310.6 109.5L310.1 110.7L310.3 110.7L310.1 111.0L310.1 111.0L309.7 111.8L310.1 111.8L309.8 112.6L309.4 112.6L309.1 113.3L309.1 113.3L308.6 114.5L309.1 114.5L308.9 114.8L308.5 114.8L307.9 116.0L305.1 116.0L304.4 117.5L306.3 117.5L305.9 118.3L308.2 118.3L307.5 119.8L305.0 119.8L304.7 120.5L305.9 120.5L305.3 122.1L305.0 122.1L304.3 123.6L304.8 123.6L304.5 124.3L304.4 124.3L304.0 125.1L303.8 125.1L303.3 126.2L303.5 126.2L303.0 127.4L302.4 127.4L301.8 128.5L300.8 128.5L300.4 129.3L305.9 129.3L305.3 130.8L299.7 130.8L299.0 132.3L302.1 132.3L301.5 133.8L304.6 133.8L303.9 135.4L304.0 135.4L303.4 136.9L293.9 136.9L293.5 137.6L295.7 137.6L295.4 138.4L298.7 138.4L298.3 139.2L290.7 139.2L290.4 139.9L294.3 139.9L294.0 140.7Q293.6 141.7 292.7 142.2L292.7 142.2L289.5 142.2Q288.9 142.5 288.2 142.5L288.2 142.5L275.8 142.5Q275.1 142.5 274.8 142.2L274.8 142.2L277.9 142.2Q277.2 141.7 277.2 140.9L277.2 140.9L277.2 140.7Q277.2 140.4 277.3 140.1L277.3 140.1L277.4 139.9L273.4 139.9L273.8 139.2L281.4 139.2L281.7 138.4L278.4 138.4L278.7 137.6L276.5 137.6L276.8 136.9L286.4 136.9L287.1 135.4L286.9 135.4L287.6 133.8L284.4 133.8L285.0 132.3L282.0 132.3L282.6 130.8L288.2 130.8L288.8 129.3L283.3 129.3L283.6 128.5L284.7 128.5L285.2 127.4L285.9 127.4L286.3 126.2L286.2 126.2L286.5 125.6L286.3 125.1L286.4 125.1L286.1 124.3L286.3 124.3L286.0 123.6L285.4 123.6L284.8 122.1L285.2 122.1L284.5 120.5L283.3 120.5L282.9 119.8L285.4 119.8L284.8 118.3L282.5 118.3L282.2 117.5L280.4 117.5L279.8 116.0L282.6 116.0L282.2 114.8L282.6 114.8L282.5 114.5L281.9 114.5L281.5 113.3L281.6 113.3L281.2 112.6L281.6 112.6L281.2 111.8L280.8 111.8L280.5 111.0L280.6 111.0L280.4 110.7L280.2 110.7L279.7 109.5L279.2 109.5L278.7 108.4L279.6 108.4L279.1 107.2L278.1 107.2L277.4 105.7L278.3 105.7L278.1 105.3L279.3 105.3L278.9 104.6L277.0 104.6L276.8 104.2L276.7 104.2L276.0 102.7L266.5 102.7L266.1 101.9L271.8 101.9L271.7 101.5L272.0 101.5L271.6 100.8L275.4 100.8L274.9 99.6L275.5 99.6L275.1 98.5L275.2 98.5L275.1 98.1L275.0 98.1L274.7 97.4L274.5 97.4L274.1 96.6L274.9 96.6L274.3 95.1L272.2 95.1L271.5 93.6L273.1 93.6L272.5 92.0L268.4 92.0L268.3 91.7L274.3 91.7L274.0 90.9Q273.9 90.7 273.9 90.4L273.9 90.4Q273.9 90.2 274.0 90.1L274.0 90.1L275.0 90.1Q275.4 88.5 276.8 88.5L276.8 88.5L289.7 88.5Q290.7 88.5 291.3 89.0Q291.8 89.5 292.0 90.1L292.0 90.1L291.0 90.1Q291.0 90.2 291.0 90.3Q291.1 90.3 291.1 90.4L291.1 90.4L291.3 90.9L291.5 91.7L285.4 91.7L285.6 92.0L289.7 92.0L290.3 93.6L288.7 93.6L289.2 95.1L291.3 95.1L291.8 96.6L291.1 96.6L291.4 97.4L291.6 97.4L292.0 98.5L291.9 98.5L292.3 99.6L291.7 99.6L292.0 100.8L288.3 100.8L288.5 101.5L288.2 101.5L288.4 101.9L282.8 101.9L283.0 102.7L289.7 102.7L290.0 101.9L296.8 101.9L297.0 101.5L292.8 101.5L293.1 100.8L298.4 100.8L298.9 99.6L298.1 99.6L298.6 98.5L298.7 98.5L298.8 98.1L299.3 98.1L299.5 97.4L297.6 97.4L297.9 96.6L300.3 96.6L300.9 95.1L299.3 95.1L299.9 93.6L302.8 93.6L303.4 92.0L297.0 92.0L297.1 91.7L303.3 91.7L303.6 90.9L303.7 90.4Q303.8 90.3 303.8 90.1L303.8 90.1L301.3 90.1Q301.7 89.5 302.3 89.0Q302.8 88.5 303.8 88.5L303.8 88.5L316.5 88.5Q317.2 88.5 317.7 89.0Q318.3 89.5 318.3 90.1L318.3 90.1L320.8 90.1Q320.8 90.6 320.7 90.9L320.7 90.9ZM296.6 104.6L298.4 104.6L298.5 104.2L293.3 104.2L293.4 104.6L295.3 104.6L295.6 105.3L294.5 105.3L294.6 105.7L293.8 105.7L294.3 107.2L295.4 107.2L295.5 107.7L295.7 107.2L296.2 105.7L296.8 105.7L296.9 105.3L296.4 105.3L296.6 104.6ZM365.5 126.2L365.5 126.6L367.9 126.6L367.9 127.8L366.0 127.8L366.0 128.1L366.5 128.1Q366.4 128.4 366.4 128.7Q366.4 129.0 366.4 129.3L366.4 129.3L366.3 129.3L366.3 129.7L362.7 129.7Q362.6 129.8 362.6 130.0Q362.6 130.3 362.6 130.4L362.6 130.4L367.0 130.4Q366.9 130.8 366.8 131.2Q366.7 131.6 366.7 131.9L366.7 131.9L365.5 131.9Q365.4 132.2 365.3 132.5Q365.2 132.8 365.1 133.1L365.1 133.1L362.6 133.1L362.3 133.8L363.6 133.8L363.3 134.6L363.4 134.6Q363.3 135.0 363.0 135.4L363.0 135.4L363.1 135.4L362.4 136.5Q362.3 136.6 362.3 136.6Q362.3 136.7 362.2 136.9L362.2 136.9Q362.0 137.2 361.8 137.4Q361.6 137.7 361.4 138.0L361.4 138.0L361.2 138.0L360.8 138.4L362.3 138.4L361.6 139.2L359.8 139.2Q359.6 139.3 359.4 139.5Q359.1 139.8 359.0 139.9L359.0 139.9L361.0 139.9Q360.7 140.2 360.3 140.5Q359.9 140.8 359.5 141.1L359.5 141.1L362.3 141.1Q361.8 141.4 361.3 141.6Q360.8 141.9 360.3 142.2L360.3 142.2L359.5 142.2Q359.1 142.4 358.7 142.6Q358.2 142.8 357.9 143.0L357.9 143.0L353.5 143.0Q352.1 143.5 350.6 143.9Q349.0 144.2 347.4 144.5L347.4 144.5L351.9 144.5Q350.8 144.6 349.6 144.7Q348.4 144.8 347.1 144.8L347.1 144.8Q345.8 144.8 344.6 144.7Q343.3 144.6 342.2 144.5L342.2 144.5L337.7 144.5Q334.3 144.0 331.4 143.0L331.4 143.0L335.7 143.0Q335.3 142.8 334.8 142.6Q334.4 142.4 333.9 142.2L333.9 142.2L334.7 142.2Q334.1 141.9 333.6 141.6Q333.1 141.4 332.5 141.1L332.5 141.1L329.9 141.1Q329.4 140.8 329.0 140.5Q328.6 140.2 328.2 139.9L328.2 139.9L326.2 139.9Q325.6 139.5 325.3 139.2L325.3 139.2L327.0 139.2Q326.8 139.0 326.5 138.8Q326.3 138.5 326.2 138.4L326.2 138.4L324.7 138.4Q324.6 138.2 324.6 138.2Q324.5 138.1 324.3 138.0L324.3 138.0L324.6 138.0Q324.3 137.7 324.0 137.4Q323.8 137.2 323.6 136.9L323.6 136.9L323.5 136.9Q323.4 136.7 323.2 136.5L323.2 136.5L323.3 136.5Q323.0 136.2 322.8 135.9Q322.6 135.7 322.4 135.4L322.4 135.4L322.0 134.6L321.8 134.6Q321.8 134.4 321.7 134.2Q321.6 134.0 321.5 133.8L321.5 133.8L320.2 133.8L319.9 133.1L322.4 133.1Q322.4 132.8 322.3 132.5Q322.1 132.2 322.1 131.9L322.1 131.9L321.6 131.9Q321.6 131.7 321.6 131.5Q321.5 131.3 321.5 131.2L321.5 131.2Q321.5 130.6 321.6 130.4L321.6 130.4L321.4 130.4Q321.6 130.0 321.9 129.7L321.9 129.7L321.5 129.7Q321.9 129.4 322.1 129.3L322.1 129.3L323.1 129.3Q323.6 129.1 324.0 129.1L324.0 129.1L338.8 129.1Q339.2 129.1 339.6 129.3L339.6 129.3L338.6 129.3Q338.9 129.4 339.2 129.7L339.2 129.7L339.6 129.7Q339.9 130.0 340.1 130.4L340.1 130.4L340.4 130.4L340.5 130.6Q341.1 131.6 341.5 131.9L341.5 131.9L341.9 131.9Q342.7 132.5 344.2 132.5L344.2 132.5Q345.3 132.5 346.2 131.9L346.2 131.9L347.4 131.9Q348.1 131.4 348.4 130.4L348.4 130.4L343.9 130.4Q344.1 130.0 344.1 129.7L344.1 129.7L347.7 129.7Q347.7 129.5 347.7 129.3L347.7 129.3L347.8 129.3Q347.9 129.0 347.9 128.7Q347.9 128.4 347.9 128.1L347.9 128.1L347.4 128.1L347.4 127.8L349.3 127.8L349.3 126.6L346.8 126.6L346.8 126.2L345.4 126.2L345.4 125.9L346.8 125.9L346.8 124.3L345.3 124.3L345.3 123.9L344.6 124.3L344.5 124.3Q342.7 125.4 340.5 125.9L340.5 125.9L340.8 125.9Q340.2 125.9 339.6 126.0Q339.0 126.2 338.3 126.2L338.3 126.2L336.4 126.2Q336.0 126.3 335.5 126.3Q335.1 126.3 334.6 126.3L334.6 126.3Q334.1 126.3 333.5 126.3Q333.0 126.3 332.5 126.2L332.5 126.2L334.4 126.2Q333.7 126.2 333.0 126.0Q332.3 125.9 331.6 125.9L331.6 125.9L331.4 125.9Q330.3 125.6 329.2 125.2Q328.2 124.9 327.2 124.3L327.2 124.3L327.3 124.3Q327.0 124.2 326.7 124.0Q326.4 123.8 326.1 123.6L326.1 123.6L327.8 123.6Q327.4 123.2 327.0 122.8Q326.5 122.4 326.2 122.1L326.2 122.1L320.0 122.1L319.6 121.7L323.1 121.7Q322.5 120.9 322.1 120.2L322.1 120.2L323.0 120.2Q322.5 119.4 322.2 118.6L322.2 118.6L322.1 118.6Q321.7 117.8 321.5 117.1L321.5 117.1L315.9 117.1Q315.9 117.0 315.9 116.9Q315.8 116.8 315.8 116.7L315.8 116.7L321.0 116.7L320.8 116.0L321.1 116.0Q321.1 115.6 321.0 115.2Q320.8 114.8 320.8 114.5L320.8 114.5L321.7 114.5L321.5 112.9L320.5 112.9L320.4 112.2L318.6 112.2Q318.5 111.8 318.5 111.4Q318.5 111.0 318.4 110.7L318.4 110.7L317.7 110.7Q317.7 110.4 317.7 110.1Q317.7 109.8 317.7 109.5L317.7 109.5L318.7 109.5L318.7 108.8L320.1 108.8Q320.1 108.5 320.0 108.2Q320.0 107.9 320.0 107.6L320.0 107.6L320.7 107.6L320.7 106.5L319.5 106.5Q319.5 106.2 319.5 105.9Q319.5 105.6 319.6 105.3L319.6 105.3L319.7 105.3L319.7 105.3Q319.7 105.0 319.7 104.7Q319.8 104.5 319.8 104.2L319.8 104.2L320.1 104.2Q320.2 103.9 320.2 103.6Q320.2 103.4 320.2 103.1L320.2 103.1Q320.3 102.9 320.3 102.7Q320.3 102.4 320.4 102.3L320.4 102.3L320.0 102.3L320.0 101.9L320.5 101.9Q320.5 101.5 320.6 101.1Q320.7 100.7 320.8 100.4L320.8 100.4L320.7 100.4Q320.8 100.1 320.8 99.8Q320.9 99.6 321.0 99.3L321.0 99.3L321.6 99.3Q321.8 98.9 321.9 98.5Q322.0 98.0 322.1 97.7L322.1 97.7L322.5 97.7L322.7 97.4L321.6 97.4Q321.7 97.2 321.8 97.0Q321.8 96.7 321.9 96.6L321.9 96.6L322.4 95.5Q322.4 95.3 322.5 95.2Q322.5 95.2 322.6 95.1L322.6 95.1L322.8 94.7Q323.0 94.5 323.1 94.3Q323.2 94.1 323.4 93.9L323.4 93.9Q323.4 93.8 323.5 93.7Q323.6 93.6 323.7 93.6L323.7 93.6L323.5 93.6L324.4 92.4Q324.6 92.3 324.8 92.0Q325.0 91.8 325.2 91.7L325.2 91.7L325.3 91.7Q325.4 91.5 325.5 91.4Q325.6 91.4 325.7 91.3L325.7 91.3L326.5 91.3Q327.0 90.8 327.5 90.5L327.5 90.5L325.6 90.5Q325.9 90.3 326.2 90.1Q326.5 89.9 326.8 89.8L326.8 89.8L327.4 89.8Q328.4 89.1 330.0 88.6L330.0 88.6L332.5 88.6Q335.2 87.8 338.3 87.8L338.3 87.8Q341.1 87.8 343.4 88.6L343.4 88.6L340.9 88.6Q342.1 89.0 343.3 89.8L343.3 89.8L342.9 89.8Q343.2 89.9 343.5 90.1Q343.7 90.3 344.0 90.5L344.0 90.5L345.8 90.5Q346.2 90.7 346.4 90.9Q346.6 91.1 346.8 91.3L346.8 91.3L346.0 91.3L346.4 91.7L346.3 91.7L347.0 92.4Q347.1 92.5 347.3 92.6Q347.4 92.8 347.4 92.9L347.4 92.9L347.4 92.4L347.7 92.4L347.7 91.7L349.0 91.7L349.0 91.3L349.9 91.3L349.9 90.5L346.2 90.5Q346.2 90.1 346.4 89.8L346.4 89.8L347.7 89.8Q348.1 88.8 349.0 88.6L349.0 88.6L347.4 88.6Q347.7 88.5 348.1 88.5L348.1 88.5L361.4 88.5Q361.7 88.5 361.9 88.6L361.9 88.6L363.4 88.6Q364.3 88.8 364.7 89.8L364.7 89.8L363.4 89.8Q363.6 90.2 363.6 90.5L363.6 90.5L367.3 90.5L367.3 91.3L366.4 91.3L366.4 91.7L365.2 91.7L365.2 92.4L364.8 92.4L364.8 93.6L364.9 93.6L364.9 94.7L364.8 94.7L364.8 96.6L364.9 96.6L364.9 97.4L366.0 97.4L366.0 97.7L365.5 97.7L365.5 99.3L364.8 99.3L364.9 100.4L364.9 102.3L364.7 102.3L364.7 103.1L364.5 103.1L364.5 104.2L364.9 104.2L364.9 105.3L365.8 105.3L365.8 106.5L364.2 106.5L364.2 107.6L364.8 107.6L364.8 108.8L364.9 108.8L364.9 109.5L362.4 109.5L362.5 110.7L362.8 110.7L362.8 112.2L364.5 112.2L364.5 112.9L365.8 112.9L365.8 114.5L364.8 114.5L364.8 116.0L364.5 116.0L364.5 116.7L359.3 116.7L359.3 117.1L364.8 117.1L364.8 118.6L365.0 118.6L365.0 120.2L363.9 120.2L364.0 121.7L360.5 121.7L360.5 122.1L366.7 122.1L366.7 123.6L363.9 123.6L363.9 124.3L365.4 124.3L365.4 125.9L364.0 125.9L364.0 126.2L365.5 126.2ZM338.1 112.2L339.8 112.2Q340.4 112.7 341.2 112.9L341.2 112.9L342.1 112.9Q342.4 113.0 342.8 113.0Q343.1 113.1 343.4 113.1L343.4 113.1Q343.8 113.1 344.1 113.0Q344.5 113.0 344.8 112.9L344.8 112.9L343.4 112.9Q344.3 112.7 344.8 112.2L344.8 112.2L343.1 112.2Q343.7 111.6 343.9 110.7L343.9 110.7L343.6 110.7L343.9 109.5L346.3 109.5Q346.3 109.4 346.4 109.3L346.4 109.3L346.4 108.8L346.2 108.8L346.2 107.6L345.8 107.6L345.8 106.5L347.3 106.5L347.3 105.3L346.3 105.3L346.3 105.2Q346.3 104.9 346.3 104.7Q346.2 104.4 346.2 104.2L346.2 104.2L345.8 104.2Q345.7 103.6 345.4 103.1L345.4 103.1L345.5 103.1Q345.3 102.6 345.0 102.3L345.0 102.3L345.2 102.3Q344.9 102.0 344.8 101.9L344.8 101.9Q344.0 101.4 342.6 101.4L342.6 101.4Q341.1 101.4 340.4 101.9L340.4 101.9L339.9 101.9Q339.8 102.0 339.5 102.3L339.5 102.3L339.8 102.3Q339.5 102.6 339.3 103.1L339.3 103.1L339.2 103.1Q339.2 103.3 339.1 103.6Q339.0 103.8 338.9 104.2L338.9 104.2L338.6 104.2Q338.5 104.5 338.4 104.8Q338.4 105.0 338.4 105.3L338.4 105.3L338.2 105.3L338.2 105.8Q338.1 106.0 338.1 106.5L338.1 106.5L339.3 106.5L339.3 107.6L338.6 107.6Q338.6 107.9 338.7 108.2Q338.7 108.5 338.7 108.7L338.7 108.7L338.7 108.8L337.3 108.8L337.4 109.5L336.3 109.5L336.6 110.7L337.3 110.7Q337.5 111.6 338.1 112.2L338.1 112.2ZM348.1 123.0L347.4 123.6L348.1 123.6L348.1 123.0ZM409.8 106.1L419.6 106.1Q419.6 106.5 419.6 106.9Q419.6 107.2 419.6 107.6L419.6 107.6L414.2 107.6L414.2 108.4L411.1 108.4L411.1 109.1L414.1 109.1L414.1 109.5L410.7 109.5L410.7 110.7L408.8 110.7L408.8 111.0L413.0 111.0Q413.0 111.3 413.0 111.4L413.0 111.4L412.7 111.4L412.7 111.8L413.4 111.8L413.4 111.9Q413.4 112.2 413.4 112.6Q413.3 112.9 413.3 113.3L413.3 113.3L412.7 113.3L412.5 114.8L413.6 114.8Q413.6 115.1 413.5 115.6L413.5 115.6L413.3 115.6Q413.2 115.9 413.1 116.2Q413.0 116.4 413.0 116.7L413.0 116.7L413.6 116.7Q413.5 117.1 413.3 117.5Q413.2 117.9 413.0 118.3L413.0 118.3L411.9 118.3L411.6 119.0L411.7 119.0Q411.6 119.3 411.6 119.4L411.6 119.4L411.3 119.4Q411.0 120.2 410.4 120.9L410.4 120.9L410.6 120.9Q410.5 121.1 410.4 121.3Q410.2 121.5 410.1 121.7L410.1 121.7L410.0 121.7L409.1 122.8Q409.0 122.9 408.9 123.0Q408.9 123.0 408.7 123.2L408.7 123.2L408.3 123.2Q408.0 123.5 407.7 123.8Q407.4 124.0 407.0 124.3L407.0 124.3L404.7 124.3L403.2 125.5L403.5 125.5Q403.3 125.6 403.2 125.6Q403.0 125.7 402.8 125.9L402.8 125.9L402.3 125.9Q402.2 125.9 401.9 126.0Q401.7 126.1 401.6 126.2L401.6 126.2L405.7 126.2Q405.3 126.5 404.8 126.7Q404.4 126.8 403.9 127.0L403.9 127.0L402.6 127.0Q402.1 127.2 401.5 127.4Q400.9 127.6 400.3 127.8L400.3 127.8L400.6 127.8Q399.7 128.0 398.7 128.2Q397.7 128.4 396.6 128.5L396.6 128.5L399.0 128.5Q397.8 128.7 396.5 128.7Q395.2 128.8 393.8 128.8L393.8 128.8Q392.4 128.8 391.1 128.7Q389.9 128.7 388.6 128.5L388.6 128.5L386.1 128.5Q385.1 128.4 384.1 128.2Q383.1 128.0 382.2 127.8L382.2 127.8L381.9 127.8Q381.3 127.6 380.8 127.4Q380.2 127.2 379.6 127.0L379.6 127.0L380.8 127.0Q380.4 126.8 380.0 126.7Q379.5 126.5 379.1 126.2L379.1 126.2L375.0 126.2L374.3 125.9L374.9 125.9L374.2 125.5L373.9 125.5Q373.0 124.9 372.3 124.3L372.3 124.3L374.6 124.3Q374.3 124.0 374.0 123.8Q373.7 123.5 373.4 123.2L373.4 123.2L373.7 123.2Q373.7 123.0 373.6 123.0Q373.5 122.9 373.4 122.8L373.4 122.8L372.4 121.7L372.5 121.7L372.0 120.9L371.8 120.9Q371.3 120.2 371.0 119.4L371.0 119.4L371.2 119.4Q371.1 119.1 371.1 119.0L371.1 119.0L370.9 119.0L370.5 118.3L371.7 118.3Q371.6 117.9 371.5 117.5Q371.3 117.1 371.2 116.7L371.2 116.7L370.5 116.7Q370.5 116.4 370.4 116.2Q370.3 115.9 370.2 115.6L370.2 115.6L369.8 115.6L369.6 114.8L368.8 114.8L368.6 113.3L369.3 113.3Q369.3 112.9 369.2 112.6Q369.2 112.2 369.2 111.9L369.2 111.9L369.2 111.8L367.8 111.8L367.8 111.4L367.4 111.4Q367.4 111.3 367.4 111.2Q367.4 111.1 367.4 111.0L367.4 111.0L371.6 111.0Q371.6 110.8 371.5 110.7L371.5 110.7L367.3 110.7L367.3 109.5L369.1 109.5L369.1 109.1L370.0 109.1L370.0 108.4L371.6 108.4L371.6 107.6L367.0 107.6Q367.0 107.2 367.0 106.9Q367.0 106.5 367.1 106.1L367.1 106.1L366.1 106.1L366.1 105.3L373.6 105.3Q373.7 105.1 373.7 104.7L373.7 104.7L373.7 104.2L371.6 104.2Q371.6 103.9 371.7 103.6Q371.7 103.4 371.7 103.1L371.7 103.1L372.4 103.1L372.7 101.5L370.2 101.5Q370.2 101.2 370.3 101.0Q370.4 100.7 370.5 100.4L370.5 100.4L369.9 100.4Q370.1 100.0 370.2 99.6Q370.3 99.2 370.5 98.9L370.5 98.9L370.5 98.9Q370.6 98.7 370.7 98.5Q370.8 98.3 370.9 98.1L370.9 98.1L370.8 98.1Q370.8 98.0 370.9 97.7L370.9 97.7L371.3 97.7Q371.6 97.0 372.1 96.2L372.1 96.2L370.6 96.2L371.1 95.5L373.9 95.5Q374.0 95.3 374.2 95.1L374.2 95.1L368.6 95.1Q368.8 94.8 369.1 94.5Q369.3 94.2 369.6 93.9L369.6 93.9L371.3 93.9Q371.7 93.6 372.1 93.1Q372.5 92.7 372.9 92.4L372.9 92.4L376.4 92.4Q377.1 91.8 378.0 91.3L378.0 91.3L379.4 91.3Q379.7 91.0 380.1 90.9Q380.4 90.7 380.7 90.5L380.7 90.5L376.2 90.5Q376.9 90.1 377.9 89.8L377.9 89.8L380.0 89.8Q381.7 89.1 383.6 88.6L383.6 88.6L381.3 88.6Q385.1 87.8 389.2 87.8L389.2 87.8Q393.4 87.8 397.1 88.6L397.1 88.6L399.5 88.6Q401.4 89.1 403.1 89.8L403.1 89.8L400.9 89.8Q401.9 90.1 402.6 90.5L402.6 90.5L407.1 90.5Q407.5 90.7 407.8 90.9Q408.2 91.0 408.5 91.3L408.5 91.3L407.0 91.3L408.6 92.4L405.1 92.4Q405.6 92.7 406.0 93.1Q406.4 93.6 406.8 93.9L406.8 93.9L405.1 93.9Q405.3 94.2 405.5 94.5Q405.8 94.8 406.0 95.1L406.0 95.1L411.6 95.1L411.8 95.5L409.1 95.5L409.5 96.2L411.1 96.2Q411.6 97.0 411.9 97.7L411.9 97.7L411.5 97.7Q411.7 98.0 411.7 98.1L411.7 98.1L411.8 98.1L412.1 98.9L412.0 98.9Q412.2 99.2 412.3 99.6Q412.5 100.0 412.6 100.4L412.6 100.4L413.3 100.4L413.6 101.5L413.1 101.5Q413.3 101.8 413.3 102.3Q413.3 102.7 413.4 103.1L413.4 103.1L414.0 103.1Q414.1 103.4 414.1 103.6Q414.1 103.9 414.2 104.2L414.2 104.2L411.2 104.2L411.2 104.7Q411.2 105.1 411.3 105.3L411.3 105.3L409.8 105.3L409.8 106.1ZM391.1 103.1L390.4 103.1Q390.3 103.4 390.3 103.6Q390.2 103.9 390.2 104.2L390.2 104.2L392.4 104.2Q392.3 104.4 392.3 104.7Q392.3 104.9 392.3 105.1L392.3 105.1L392.3 105.3L392.6 105.3L392.6 105.1Q392.6 104.9 392.6 104.7Q392.5 104.4 392.5 104.2L392.5 104.2L395.5 104.2Q395.5 103.9 395.4 103.6Q395.4 103.4 395.4 103.1L395.4 103.1L394.8 103.1Q394.7 102.6 394.6 102.2Q394.5 101.8 394.3 101.5L394.3 101.5L394.9 101.5Q394.6 100.9 394.0 100.4L394.0 100.4L393.2 100.4Q392.4 99.9 391.2 99.9L391.2 99.9Q390.0 99.9 389.3 100.4L389.3 100.4L389.9 100.4Q389.5 100.6 389.3 100.9Q389.1 101.2 388.9 101.5L388.9 101.5L391.4 101.5Q391.4 101.8 391.3 102.2Q391.1 102.6 391.1 103.1L391.1 103.1ZM395.6 108.4L395.6 107.6L400.9 107.6L400.9 106.1L391.1 106.1Q391.1 105.8 391.1 105.3L391.1 105.3L384.8 105.3Q384.8 105.8 384.7 106.1L384.7 106.1L385.7 106.1L385.7 107.6L390.3 107.6L390.3 108.4L388.6 108.4L388.6 109.1L387.7 109.1L387.7 109.5L385.9 109.5Q385.9 109.8 385.9 110.1Q386.0 110.4 386.0 110.7L386.0 110.7L392.0 110.7L392.0 109.5L395.4 109.5L395.4 109.1L392.4 109.1L392.4 108.4L395.6 108.4ZM394.1 111.4L394.3 111.4L394.3 111.0L386.1 111.0L386.1 111.4L386.4 111.4L386.4 111.5Q386.4 111.6 386.5 111.6Q386.5 111.7 386.5 111.8L386.5 111.8L387.8 111.8Q387.9 112.2 387.9 112.6Q387.9 112.9 388.0 113.3L388.0 113.3L387.2 113.3Q387.3 114.3 387.5 114.8L387.5 114.8L388.3 114.8Q388.5 115.3 388.6 115.6L388.6 115.6L389.2 115.6Q389.9 116.7 391.8 116.7L391.8 116.7Q393.7 116.7 394.3 115.6L394.3 115.6L394.6 115.6Q394.7 115.4 394.8 115.3Q394.9 115.1 394.9 114.8L394.9 114.8L393.8 114.8Q393.9 114.5 394.0 114.1Q394.0 113.8 394.1 113.3L394.1 113.3L394.6 113.3Q394.7 112.9 394.7 112.6Q394.7 112.2 394.8 111.8L394.8 111.8L394.1 111.8L394.1 111.4ZM451.6 93.2L451.6 94.3L454.5 94.3L454.5 95.8L454.4 95.8L454.4 97.4L451.7 97.4L451.7 98.5L452.4 98.5L452.4 100.0L451.8 100.0L451.8 101.5L450.4 101.5L450.4 101.9L445.6 101.9L445.6 102.4Q445.6 102.6 445.6 102.8Q445.6 102.9 445.5 103.1L445.5 103.1L447.2 103.1Q446.9 104.5 445.3 104.5L445.3 104.5L435.5 104.5Q435.1 104.5 434.9 104.5Q434.6 104.5 434.4 104.6L434.4 104.6L437.4 104.6Q437.0 104.7 436.7 104.7Q436.4 104.8 436.1 105.0L436.1 105.0L438.6 105.0Q438.3 105.0 437.9 105.3L437.9 105.3L439.3 105.3L438.9 105.7L439.3 105.7Q438.8 106.2 438.6 106.9L438.6 106.9L436.3 106.9Q436.1 107.2 436.1 107.2L436.1 107.2L435.4 107.2Q435.4 107.3 435.3 107.4Q435.3 107.5 435.3 107.6L435.3 107.6L436.2 107.6Q436.1 107.8 436.1 108.0Q436.1 108.1 436.1 108.4L436.1 108.4L436.5 108.4L436.5 109.5L435.5 109.5L435.5 110.3L436.5 110.3L436.5 111.4L437.7 111.4L437.7 112.9L436.0 112.9L436.0 113.3L434.8 113.3L434.8 113.7L439.3 113.7L439.3 114.8L437.0 114.8L437.0 115.6L437.8 115.6L437.8 116.4L436.1 116.4L436.1 117.9L435.1 117.9L435.1 118.3L434.1 118.3L434.1 119.4L436.7 119.4L436.7 120.5L435.3 120.5L435.3 121.7L436.7 121.7L436.7 122.1L436.5 122.1L436.5 122.8L434.8 122.8L434.8 123.6L436.1 123.6L436.1 125.1L436.4 125.1L436.4 126.2L436.1 126.2Q435.9 127.3 435.1 127.8L435.1 127.8L434.4 127.8Q434.0 128.1 433.3 128.1L433.3 128.1L418.9 128.1Q418.2 128.1 417.8 127.8L417.8 127.8L418.5 127.8Q417.7 127.3 417.5 126.2L417.5 126.2L417.8 126.2L417.8 125.1L417.5 125.1L417.5 123.6L416.3 123.6L416.3 122.8L418.0 122.8L418.0 122.1L418.1 122.1L418.1 121.7L416.8 121.7L416.8 120.5L418.1 120.5L418.1 119.4L415.5 119.4L415.5 118.3L416.5 118.3L416.5 117.9L417.5 117.9L417.5 116.4L419.3 116.4L419.3 115.6L418.5 115.6L418.5 114.8L420.8 114.8L420.8 113.7L416.2 113.7L416.2 113.3L417.4 113.3L417.4 112.9L419.1 112.9L419.1 111.4L418.0 111.4L418.0 110.3L416.9 110.3L416.9 109.5L418.0 109.5L418.0 108.4L417.5 108.4L417.5 107.6L416.6 107.6L416.6 107.2L417.4 107.2L417.4 106.9L419.6 106.9L419.6 105.7L419.3 105.7L419.3 105.3L417.9 105.3L417.9 105.0L415.4 105.0L415.4 104.6L412.3 104.6L412.3 103.1L410.7 103.1L410.7 101.9L415.5 101.9L415.5 101.5L416.8 101.5L416.8 100.0L417.4 100.0L417.4 98.5L416.8 98.5L416.8 97.4L419.4 97.4L419.4 95.8L419.6 95.8L419.6 94.3L416.7 94.3L416.7 93.2L419.1 93.2L419.1 91.7L416.8 91.7L416.8 91.3L417.5 91.3L417.5 90.6Q417.5 90.2 417.7 89.8L417.7 89.8L417.6 89.8Q418.1 88.5 419.5 88.5L419.5 88.5L432.8 88.5Q434.1 88.5 434.6 89.8L434.6 89.8L434.8 89.8Q434.9 90.2 434.9 90.6L434.9 90.6L434.9 91.3L434.2 91.3L434.2 91.7L436.5 91.7L436.5 91.9L436.8 91.7L437.0 91.7Q437.1 91.5 437.3 91.4Q437.4 91.4 437.5 91.3L437.5 91.3L437.7 91.3Q439.2 90.3 440.6 89.8L440.6 89.8L440.8 89.8Q442.3 89.1 443.8 88.8Q445.3 88.5 447.0 88.5L447.0 88.5L450.7 88.5Q452.0 88.5 452.6 89.8L452.6 89.8L452.4 89.8Q452.6 90.2 452.6 90.6L452.6 90.6L452.6 91.3L452.5 91.3L452.5 91.7L452.3 91.7L452.3 93.2L451.6 93.2Z "/></svg>
