<svg width="168" height="188" viewBox="-10 0 188 188" fill="none" xmlns="http://www.w3.org/2000/svg">
  <!-- Ears -->
  <circle cx="41.5" cy="65.5232" r="19.5" fill="#FFAC42"/>
  <circle cx="40.5" cy="65.5" r="13.5" fill="#FFE29C"/>
  <circle cx="127.5" cy="65.5232" r="19.5" fill="#FFAC42"/>
  <circle cx="127.5" cy="65.5" r="13.5" fill="#FFE29C"/>
  <!-- Crown/hair -->
  <path d="M79.8304 43.5969C79.7769 41.1122 81.7478 39.0545 84.2325 39.0011C86.7172 38.9476 88.7748 40.9185 88.8283 43.4032L88.9042 46.9293L90.0993 43.6459C90.9493 41.3105 93.5316 40.1063 95.867 40.9563C98.2024 41.8064 99.4065 44.3886 98.5565 46.724L94.4523 58.0004C93.6023 60.3358 91.02 61.5399 88.6846 60.6899C87.9368 60.4177 87.3051 59.968 86.8196 59.4057C86.189 59.7665 85.4619 59.9795 84.6844 59.9962C84.0474 60.0099 83.4384 59.8905 82.884 59.6636C82.4693 60.9327 81.4965 62.0053 80.1446 62.4973C77.8092 63.3473 75.2269 62.1432 74.3768 59.8078L70.2726 48.5315C69.4226 46.1961 70.6267 43.6138 72.9621 42.7638C75.2975 41.9138 77.8798 43.1179 78.7298 45.4533L79.942 48.7838L79.8304 43.5969Z" fill="#FFAC42"/>
  <!-- Face -->
  <path d="M142 104.177C142 129.87 116.033 154 84 154C51.9675 154 26 129.87 26 104.177C26 78.4839 51.9675 50 84 50C116.033 50 142 78.4839 142 104.177Z" fill="#FFAC42"/>
  <!-- Forehead stripes -->
  <path fill-rule="evenodd" clip-rule="evenodd" d="M66.4434 72.319C66.1299 73.2098 64.8702 73.2098 64.5567 72.319L58.8398 56.071C63.5617 53.7041 68.6393 51.9372 73.9667 50.9369L66.4434 72.319ZM75.9173 50.6069L83.5567 72.319C83.8702 73.2098 85.1299 73.2098 85.4434 72.319L93.0296 50.7581C90.0872 50.2619 87.0715 50 84 50C81.2572 50 78.5587 50.2088 75.9173 50.6069ZM95.1083 51.1498L102.557 72.319C102.87 73.2098 104.13 73.2098 104.443 72.319L110.008 56.5043C105.364 54.0838 100.362 52.2447 95.1083 51.1498Z" fill="#6B4A32"/>
  <!-- Cheek stripes left -->
  <path fill-rule="evenodd" clip-rule="evenodd" d="M27.0558 94.9998C27.8426 91.521 29.0549 88.0585 30.6446 84.688L43.9225 91.0384C44.8233 91.4692 44.6058 92.8091 43.6149 92.9328L27.0558 94.9998ZM26.1525 107.595C26.0514 106.46 26 105.32 26 104.177C26 101.907 26.2028 99.6147 26.5945 97.3224L42.6032 100.508C43.6199 100.71 43.6951 102.135 42.7053 102.443L26.1525 107.595Z" fill="#6B4A32"/>
  <!-- Cheek stripes right -->
  <path fill-rule="evenodd" clip-rule="evenodd" d="M141.885 107.143C141.961 106.157 142 105.168 142 104.177C142 102.002 141.814 99.8061 141.454 97.6096L126.888 100.508C125.872 100.71 125.797 102.135 126.786 102.443L141.885 107.143ZM137.627 85.2718C139.055 88.3957 140.159 91.5943 140.9 94.8081L125.877 92.9328C124.886 92.8091 124.668 91.4692 125.569 91.0384L137.627 85.2718Z" fill="#6B4A32"/>
  <!-- Muzzle -->
  <path fill-rule="evenodd" clip-rule="evenodd" d="M40.0598 135.956C41.2709 120.382 60.7043 108 84.4999 108C107.815 108 126.943 119.887 128.845 135.018C118.207 146.322 102.069 154 84 154C66.4363 154 50.6959 146.745 40.0598 135.956Z" fill="#FFE29C"/>
  <!-- Blush -->
  <circle cx="50.5" cy="115.5" r="7.5" fill="#FF8F75"/>
  <circle cx="117.5" cy="115.5" r="7.5" fill="#FF8F75"/>
  <!-- Eyes -->
  <circle cx="59" cy="97" r="9" fill="#6B4A32"/>
  <circle cx="62.0383" cy="95.2739" r="3.11538" transform="rotate(-150 62.0383 95.2739)" fill="white"/>
  <circle cx="57.8505" cy="100.778" r="2.07692" transform="rotate(-150 57.8505 100.778)" fill="white"/>
  <circle cx="110" cy="97" r="9" fill="#6B4A32"/>
  <circle cx="113.038" cy="95.2739" r="3.11538" transform="rotate(-150 113.038 95.2739)" fill="white"/>
  <circle cx="108.851" cy="100.778" r="2.07692" transform="rotate(-150 108.851 100.778)" fill="white"/>
  <!-- Nose -->
  <path d="M85.0855 108V114.837C85.0855 117.07 86.8954 118.88 89.1282 118.88H89.693C91.6138 118.88 93.1709 117.323 93.1709 115.402V115.402" stroke="#6B4A32" stroke-width="2" stroke-linecap="round" stroke-linejoin="round"/>
  <path d="M85.0854 108V114.837C85.0854 117.07 83.2755 118.88 81.0427 118.88H80.4779C78.5571 118.88 77 117.323 77 115.402V115.402" stroke="#6B4A32" stroke-width="2" stroke-linecap="round" stroke-linejoin="round"/>
  <ellipse cx="85" cy="108.612" rx="8" ry="4.61181" fill="#6B4A32"/>
  <ellipse cx="80.6974" cy="106.6" rx="1.15989" ry="1.11412" fill="white"/>
  <!-- Freckles -->
  <circle cx="63.25" cy="113.25" r="1.25" fill="#6B4A32" fill-opacity="0.7"/>
  <circle cx="67.25" cy="114.25" r="1.25" fill="#6B4A32" fill-opacity="0.7"/>
  <circle cx="64.25" cy="117.25" r="1.25" fill="#6B4A32" fill-opacity="0.7"/>
  <circle r="1.25" transform="matrix(-1 0 0 1 104.75 113.25)" fill="#6B4A32" fill-opacity="0.7"/>
  <circle r="1.25" transform="matrix(-1 0 0 1 100.75 114.25)" fill="#6B4A32" fill-opacity="0.7"/>
  <circle r="1.25" transform="matrix(-1 0 0 1 103.75 117.25)" fill="#6B4A32" fill-opacity="0.7"/>
</svg>
